<?xml version="1.0" encoding="utf-8"?>
<!-- Generator: Adobe Illustrator 15.1.0, SVG Export Plug-In . SVG Version: 6.00 Build 0)  -->
<!DOCTYPE svg PUBLIC "-//W3C//DTD SVG 1.1//EN" "http://www.w3.org/Graphics/SVG/1.1/DTD/svg11.dtd">
<svg version="1.1" id="Layer_1" xmlns="http://www.w3.org/2000/svg" xmlns:xlink="http://www.w3.org/1999/xlink" x="0px" y="0px"
	 width="300px" height="100px" viewBox="0 0 300 100" enable-background="new 0 0 300 100" xml:space="preserve">
<g>
	<path fill="#00B259" d="M211.446,30.205V5h5.167v21.659C215.209,27.365,213.246,28.709,211.446,30.205 M202.465,37.787
		c1.586-1.902,3.224-3.839,5.17-5.464V5h-5.17V37.787z M142.602,57.807c0,6.742,2.673,13.131,7.54,17.998
		c4.858,4.855,11.253,7.532,17.991,7.532c2.852,0,5.781-0.604,7.852-1.625v-5.163c-2.41,1.014-5.342,1.621-7.852,1.621
		c-11.036,0-20.364-9.324-20.364-20.363v-4.654c0-11.041,9.328-20.364,20.364-20.364c5.486,0,10.619,2.104,14.438,5.926
		c3.827,3.823,5.924,8.952,5.924,14.438v30.186h5.17V52.156c-0.318-6.59-3.129-12.756-7.916-17.365
		c-4.795-4.628-11.056-7.175-17.615-7.175c-6.738,0-13.133,2.68-17.991,7.547c-4.867,4.86-7.54,11.253-7.54,17.987V57.807
		L142.602,57.807z M219.967,45.444c2.334-2.331,5.391-3.675,8.367-3.675c6.379,0,11.386,4.996,11.386,11.381v4.654
		c0,6.383-5.007,11.395-11.386,11.395c-3.09,0-6.074-1.701-8.416-4.772c-2.069-2.718-3.406-6.39-3.619-9.685l-4.19,5.117
		c0.827,3.91,2.87,7.656,5.759,10.289c2.984,2.713,6.701,4.222,10.467,4.222c9.136,0,16.558-7.427,16.558-16.563v-4.654
		c0-4.324-1.75-8.456-4.925-11.625c-3.182-3.182-7.309-4.932-11.633-4.932c-2.732,0-7.076,0.983-12.258,5.634l-0.02,0.02
		c-1.383,1.39-4.641,4.65-6.621,6.963c-3.33,3.634-8.17,9.119-12.289,14.604v8.074c4.57-5.873,7.205-9.172,11.507-14.129
		C212.502,53.266,217.271,47.806,219.967,45.444 M97.871,35.699v-6.116c-4.673-2.514-9.779-3.634-16.553-3.634
		c-6.905,0-13.462,2.54-18.451,7.134c-4.996,4.609-7.744,10.672-7.744,17.069v1.67c0,13.349,10.702,24.207,23.868,24.207
		c10.706,0,15.099-3.506,16.223-4.609V55.893H77.734v5.172h12.639v7.773l-0.049,0.016c-1.621,0.646-5.004,2.006-11.333,2.006
		c-5.022,0-9.723-1.963-13.234-5.514c-3.527-3.568-5.467-8.371-5.467-13.522v-1.67c0-10.312,9.632-19.024,21.028-19.024
		C89.204,31.128,93.861,32.411,97.871,35.699 M135.532,41.77c1.967,0,3.63,0.326,4.951,0.972c0.649-1.602,1.313-2.931,2.271-4.54
		c-1.405-1.003-4.754-1.606-7.222-1.606c-9.434,0-16.553,7.114-16.553,16.556v30.187h5.171V53.15
		C124.149,46.446,128.835,41.77,135.532,41.77 M46.132,50.152v1.67c0,8.972,3.409,17.339,9.586,23.562
		C61.88,81.596,70.148,85,78.991,85c7.107,0,13.398-1.6,18.713-4.766c4.382-2.611,6.317-5.246,6.492-5.488V46.902H77.733v5.179
		h21.291v21.062l-0.022,0.017c-2.494,2.493-8.405,6.67-20.012,6.67c-7.559,0-14.56-2.878-19.719-8.121
		c-5.137-5.22-7.962-12.285-7.962-19.886v-1.67c0-7.176,3.235-14.336,8.877-19.632c5.755-5.398,13.265-8.375,21.131-8.375
		c7.339,0,12.453,1.112,16.553,3.595v-5.801c-4.274-1.822-9.377-2.639-16.553-2.639C62.252,17.301,46.132,32.351,46.132,50.152
		 M184.688,83.337V53.15c0-9.277-7.272-16.557-16.558-16.557c-4.332,0-8.453,1.75-11.631,4.932
		c-3.179,3.17-4.924,7.301-4.924,11.625v4.654c0,8.973,7.584,16.564,16.555,16.564c2.457,0,5.81-0.607,7.853-2.293v-5.465
		c-2.009,1.617-4.933,2.587-7.853,2.587c-6.385,0-11.385-5.013-11.385-11.394V53.15c0-6.386,5-11.382,11.385-11.382
		c6.387,0,11.387,4.996,11.387,11.382v30.186L184.688,83.337L184.688,83.337z M135.532,32.787c3.516,0,6.557,0.755,9.298,2.305
		c1.291-1.606,2.594-2.912,3.565-3.884c-2.9-2.218-7.817-3.592-12.863-3.592c-7.179,0-13.701,2.589-18.359,7.293
		C112.548,39.579,110,46.056,110,53.15v30.187h5.167V53.15C115.167,41.162,123.542,32.787,135.532,32.787 M246.33,35.163
		c-4.867-4.867-11.258-7.547-17.996-7.547c-4.924,0-9.871,1.834-12.598,3.645c-5.63,3.751-10.258,7.82-18.591,18.588v7.741
		c7.071-9.211,13.758-16.47,18.834-20.46c3.345-2.68,8.079-4.343,12.354-4.343c11.037,0,20.367,9.324,20.367,20.363v4.654
		c0,5.461-2.145,10.59-6.048,14.441c-3.868,3.822-8.955,5.923-14.319,5.923c-9.065,0-17.055-6.228-19.223-14.724l-3.641,4.42
		c2.652,8.902,12.263,15.471,22.861,15.471c6.739,0,13.129-2.677,17.996-7.531c4.867-4.867,7.539-11.257,7.539-18V53.15
		C253.869,46.416,251.195,40.023,246.33,35.163"/>
</g>
</svg>
