<?xml version="1.0" encoding="utf-8"?>
<!-- Generator: Adobe Illustrator 15.1.0, SVG Export Plug-In . SVG Version: 6.00 Build 0)  -->
<!DOCTYPE svg PUBLIC "-//W3C//DTD SVG 1.1//EN" "http://www.w3.org/Graphics/SVG/1.1/DTD/svg11.dtd">
<svg version="1.1" id="Layer_1" xmlns="http://www.w3.org/2000/svg" xmlns:xlink="http://www.w3.org/1999/xlink" x="0px" y="0px"
	 width="300px" height="100px" viewBox="0 0 300 100" enable-background="new 0 0 300 100" xml:space="preserve">
<path fill="#D6343B" d="M90.793,26.337c1.738-1.742,2.748-2.756,4.923-2.756c2.461,0,4.058,1.886,4.058,4.638v33.458
	c0,1.447-1.164,3.048-2.899,3.048c-1.739,0-3.042-1.312-3.042-3.048V32.126L67.461,58.489c-0.87,0.873-2.019,1.592-3.035,1.592
	c-1.163,0-2.319-0.571-3.188-1.441L34.731,32.126v29.551c0,1.736-1.303,3.048-3.045,3.048c-1.735,0-2.895-1.601-2.895-3.048V28.22
	c0-2.752,1.735-4.638,4.197-4.638c2.175,0,3.048,1.014,4.784,2.756l26.509,26.5L90.793,26.337z"/>
<path fill="#67A944" d="M164.091,64.285c-1.592,0-3.039-0.579-4.197-1.6c-1.159-1.146-1.595-2.604-1.595-4.193v-29.55
	c0-1.742,0.435-3.044,1.595-4.204c1.158-1.156,2.605-1.731,4.197-1.731h38.395c1.59,0,2.892,1.441,2.892,2.89
	c0,1.739-1.445,3.044-2.892,3.044h-35.347c-1.738,0-3.048,1.158-3.048,2.895v23.618c0,1.881,1.16,3.037,3.048,3.037h36.213
	c1.737,0,2.894-1.305,2.894-3.037v-5.94c0-1.599-1.155-2.901-2.894-2.901h-24.48c-1.593,0-2.902-1.45-2.902-2.896
	c0-1.737,1.454-3.041,2.902-3.041h27.374c1.597,0,3.045,0.58,4.202,1.732c1.158,1.16,1.738,2.613,1.738,4.205v11.879
	c0,1.59-0.58,3.047-1.738,4.192c-1.156,1.021-2.605,1.601-4.202,1.601L164.091,64.285L164.091,64.285z"/>
<path fill="#F9A61C" d="M218.125,61.391V25.897c0-1.732,1.592-2.895,3.041-2.895c1.594,0,2.896,1.445,2.896,2.895v35.493
	c0,1.734-1.445,2.896-2.896,2.896C219.288,64.285,218.125,62.982,218.125,61.391"/>
<path fill="#F37B43" d="M235.945,64.285c-1.741,0-3.19-0.579-4.203-1.6C230.579,61.54,230,60.082,230,58.492v-29.55
	c0-1.742,0.579-3.044,1.742-4.204c1.159-1.156,2.462-1.731,4.203-1.731h37.372c0.717,0,1.447,0.285,2.021,0.869
	c0.583,0.572,0.87,1.302,0.87,2.021c0,0.87-0.287,1.592-0.87,2.172c-0.574,0.583-1.305,0.873-2.021,0.873h-34.477
	c-0.87,0-1.594,0.29-2.172,0.869c-0.433,0.577-0.724,1.303-0.724,2.026v23.618c0,0.861,0.291,1.585,0.724,2.165
	c0.578,0.586,1.302,0.872,2.172,0.872h34.477c0.717,0,1.447,0.291,2.021,0.87c0.583,0.586,0.87,1.306,0.87,2.028
	c0,0.87-0.287,1.593-0.87,2.171c-0.574,0.435-1.305,0.725-2.021,0.725L235.945,64.285L235.945,64.285z"/>
<path fill="#00AAC7" d="M144.493,58.345h-30.481c-1.732,0-2.502-1.155-2.502-2.89c0-1.744,0.771-2.901,2.502-2.901h30.481
	c1.742,0,2.653,1.157,2.653,2.901C147.146,57.189,146.235,58.345,144.493,58.345 M146.713,34.738h-26.366
	c-1.738,0-2.897,1.449-2.897,3.044c0,1.592,1.159,2.896,2.897,2.896h24.146c1.885,0,2.51,1.16,2.51,3.042
	c0,1.878-0.768,3.037-2.51,2.894h-32.837c-3.188,0-6.082,2.605-5.943,5.94v5.938c0,3.182,2.605,5.793,5.943,5.793h33.747
	c6.955,0,6.955-5.502,6.955-5.793V40.678C152.357,37.49,149.897,34.738,146.713,34.738"/>
<polygon fill="#FFFFFF" points="28.732,73.916 30.712,73.916 32.897,80.696 35.094,73.916 37.053,73.916 37.053,82.386 
	35.875,82.386 35.875,75.359 35.691,75.359 33.516,82.063 32.263,82.063 30.092,75.359 29.912,75.359 29.912,82.386 28.732,82.386 
	"/>
<path fill="#FFFFFF" d="M43.427,81.062c0.034,0.354,0.238,0.504,0.621,0.55l-0.058,0.887c-0.689,0-1.131-0.097-1.549-0.45
	c0,0-1.023,0.467-2.056,0.467c-1.155,0-1.763-0.674-1.763-1.914c0-1.248,0.665-1.717,1.944-1.818l1.706-0.158v-0.456
	c0-0.679-0.316-0.981-0.96-0.981c-0.839,0-2.287,0.147-2.287,0.147l-0.055-0.878c0,0,1.477-0.297,2.46-0.297
	c1.335,0,1.997,0.638,1.997,2.009V81.062z M40.701,79.611c-0.628,0.062-0.912,0.354-0.912,0.964c0,0.608,0.261,0.98,0.823,0.98
	c0.702,0,1.663-0.306,1.663-0.306v-1.796L40.701,79.611z"/>
<rect x="45.391" y="73.701" fill="#FFFFFF" width="1.159" height="8.688"/>
<path fill="#FFFFFF" d="M52.879,81.062c0.022,0.354,0.225,0.504,0.608,0.55l-0.05,0.887c-0.699,0-1.132-0.097-1.544-0.45
	c0,0-1.033,0.467-2.066,0.467c-1.156,0-1.764-0.674-1.764-1.914c0-1.248,0.671-1.717,1.946-1.818l1.708-0.158v-0.456
	c0-0.679-0.324-0.981-0.965-0.981c-0.84,0-2.284,0.147-2.284,0.147l-0.061-0.878c0,0,1.48-0.297,2.469-0.297
	c1.326,0,2.001,0.638,2.001,2.009L52.879,81.062L52.879,81.062z M50.141,79.611c-0.631,0.062-0.909,0.354-0.909,0.964
	c0,0.608,0.257,0.98,0.819,0.98c0.703,0,1.667-0.306,1.667-0.306v-1.796L50.141,79.611z"/>
<polygon fill="#FFFFFF" points="55.256,76.297 56.636,81.271 57.008,81.271 58.395,76.297 59.541,76.297 57.137,85.036 
	56.005,85.036 56.724,82.379 55.772,82.379 54.111,76.297 "/>
<path fill="#FFFFFF" d="M64.888,77.394c0,0-1.401-0.194-2.16-0.194c-0.729,0-1.169,0.188-1.169,0.777
	c0,0.468,0.282,0.602,1.392,0.785c1.609,0.254,2.153,0.614,2.153,1.813c0,1.426-0.912,1.938-2.399,1.938
	c-0.815,0-2.208-0.256-2.208-0.256l0.048-0.984c0,0,1.442,0.19,2.062,0.19c0.93,0,1.346-0.19,1.346-0.857
	c0-0.505-0.255-0.625-1.346-0.802c-1.517-0.258-2.199-0.558-2.199-1.804c0-1.358,1.09-1.841,2.252-1.841
	c0.896,0,2.253,0.257,2.253,0.257L64.888,77.394z"/>
<path fill="#FFFFFF" d="M66.674,73.833h1.156v1.282h-1.156V73.833z M66.674,76.297h1.156v6.089h-1.156V76.297z"/>
<path fill="#FFFFFF" d="M74.133,81.062c0.021,0.354,0.231,0.504,0.607,0.55l-0.045,0.887c-0.696,0-1.136-0.097-1.551-0.45
	c0,0-1.019,0.467-2.054,0.467c-1.161,0-1.775-0.674-1.775-1.914c0-1.248,0.671-1.717,1.953-1.818l1.702-0.158v-0.456
	c0-0.679-0.315-0.981-0.958-0.981c-0.842,0-2.295,0.147-2.295,0.147l-0.044-0.878c0,0,1.476-0.297,2.464-0.297
	c1.321,0,1.995,0.638,1.995,2.009L74.133,81.062L74.133,81.062z M71.401,79.611c-0.633,0.062-0.907,0.354-0.907,0.964
	c0,0.608,0.254,0.98,0.811,0.98c0.707,0,1.666-0.306,1.666-0.306v-1.796L71.401,79.611z"/>
<path fill="#FFFFFF" d="M76.124,82.386v-6.089h1.154v0.391c0,0,0.919-0.527,1.747-0.527c1.701,0,2.096,0.919,2.096,3.038v3.188
	h-1.147v-3.213c0-1.376-0.171-1.974-1.181-1.974c-0.777,0-1.516,0.366-1.516,0.366v4.818h-1.153V82.386z"/>
<path fill="#FFFFFF" d="M89.215,78.017h2.347v4.205c0,0-1.728,0.295-2.761,0.295c-2.583,0-3.316-1.589-3.316-4.364
	c0-2.878,0.765-4.368,3.274-4.368c1.275,0,2.803,0.347,2.803,0.347l-0.047,1.03c0,0-1.481-0.214-2.595-0.214
	c-1.783,0-2.22,0.92-2.22,3.205c0,2.237,0.377,3.219,2.188,3.219c0.643,0,1.468-0.143,1.507-0.143v-2.16h-1.183v-1.052H89.215z"/>
<rect x="93.206" y="73.701" fill="#FFFFFF" width="1.159" height="8.688"/>
<path fill="#FFFFFF" d="M101.202,79.283c0,2.045-0.584,3.233-2.657,3.233c-2.083,0-2.678-1.136-2.678-3.233
	c0-2.038,0.678-3.123,2.678-3.123C100.473,76.16,101.202,77.275,101.202,79.283 M100.036,79.283c0-1.456-0.406-2.084-1.49-2.084
	c-1.167,0-1.51,0.584-1.51,2.084c0,1.51,0.255,2.18,1.51,2.18C99.799,81.463,100.036,80.732,100.036,79.283"/>
<path fill="#FFFFFF" d="M107.652,79.248c0,2.47-0.735,3.264-2.936,3.264c-0.685,0-2.141-0.141-2.141-0.141v-8.67h1.142v2.828
	c0,0,0.879-0.365,1.633-0.365C107.015,76.164,107.652,77.005,107.652,79.248 M106.472,79.248c0-1.463-0.34-2.02-1.255-2.02
	c-0.684,0-1.499,0.253-1.499,0.253v3.923c0,0,0.722,0.059,0.999,0.059C106.203,81.463,106.472,80.804,106.472,79.248"/>
<path fill="#FFFFFF" d="M113.578,81.062c0.02,0.354,0.228,0.504,0.604,0.55l-0.047,0.887c-0.695,0-1.131-0.097-1.547-0.45
	c0,0-1.025,0.467-2.064,0.467c-1.148,0-1.764-0.674-1.764-1.914c0-1.248,0.671-1.717,1.947-1.818l1.71-0.158v-0.456
	c0-0.679-0.316-0.981-0.968-0.981c-0.842,0-2.283,0.147-2.283,0.147l-0.056-0.878c0,0,1.474-0.297,2.464-0.297
	c1.331,0,2.002,0.638,2.002,2.009v2.894H113.578z M110.846,79.611c-0.636,0.062-0.914,0.354-0.914,0.964
	c0,0.608,0.25,0.98,0.814,0.98c0.704,0,1.672-0.306,1.672-0.306v-1.796L110.846,79.611z"/>
<rect x="115.535" y="73.701" fill="#FFFFFF" width="1.157" height="8.688"/>
<rect x="121.482" y="73.915" fill="#FFFFFF" width="1.183" height="8.471"/>
<path fill="#FFFFFF" d="M124.621,82.386v-6.089h1.145v0.391c0,0,0.924-0.527,1.756-0.527c1.695,0,2.099,0.919,2.099,3.038v3.188
	h-1.152v-3.213c0-1.376-0.165-1.974-1.177-1.974c-0.778,0-1.526,0.366-1.526,0.366v4.818h-1.145V82.386z"/>
<path fill="#FFFFFF" d="M131.512,82.386v-6.089h1.153v0.391c0,0,0.923-0.527,1.756-0.527c1.689,0,2.094,0.919,2.094,3.038v3.188
	h-1.159v-3.213c0-1.376-0.162-1.974-1.173-1.974c-0.778,0-1.518,0.366-1.518,0.366v4.818h-1.153V82.386z"/>
<path fill="#FFFFFF" d="M143.312,79.283c0,2.045-0.581,3.233-2.653,3.233c-2.085,0-2.683-1.136-2.683-3.233
	c0-2.038,0.687-3.123,2.683-3.123C142.583,76.16,143.312,77.275,143.312,79.283 M142.146,79.283c0-1.456-0.406-2.084-1.487-2.084
	c-1.171,0-1.514,0.584-1.514,2.084c0,1.51,0.255,2.18,1.514,2.18C141.907,81.463,142.146,80.732,142.146,79.283"/>
<polygon fill="#FFFFFF" points="145.279,76.297 146.605,81.416 147.002,81.416 148.338,76.297 149.517,76.297 147.875,82.379 
	145.727,82.379 144.089,76.297 "/>
<path fill="#FFFFFF" d="M155.107,81.062c0.027,0.354,0.228,0.504,0.605,0.55l-0.042,0.887c-0.694,0-1.141-0.097-1.556-0.45
	c0,0-1.02,0.467-2.056,0.467c-1.162,0-1.767-0.674-1.767-1.914c0-1.248,0.667-1.717,1.955-1.818l1.696-0.158v-0.456
	c0-0.679-0.315-0.981-0.956-0.981c-0.841,0-2.291,0.147-2.291,0.147l-0.048-0.878c0,0,1.472-0.297,2.455-0.297
	c1.333,0,2.004,0.638,2.004,2.009V81.062z M152.372,79.611c-0.628,0.062-0.908,0.354-0.908,0.964c0,0.608,0.256,0.98,0.814,0.98
	c0.709,0,1.665-0.306,1.665-0.306v-1.796L152.372,79.611z"/>
<path fill="#FFFFFF" d="M158.358,77.335v2.657c0,1.096,0.058,1.436,0.753,1.436c0.342,0,1.032-0.057,1.032-0.057l0.071,0.996
	c0,0-0.815,0.146-1.251,0.146c-1.322,0-1.753-0.498-1.753-2.252v-2.925H156.4v-1.042h0.811v-1.821h1.147v1.821h1.785v1.042
	L158.358,77.335L158.358,77.335z"/>
<path fill="#FFFFFF" d="M161.41,73.833h1.166v1.282h-1.166V73.833z M161.41,76.297h1.166v6.089h-1.166V76.297z"/>
<path fill="#FFFFFF" d="M169.381,79.283c0,2.045-0.579,3.233-2.656,3.233c-2.079,0-2.678-1.136-2.678-3.233
	c0-2.038,0.685-3.123,2.678-3.123C168.654,76.16,169.381,77.275,169.381,79.283 M168.219,79.283c0-1.456-0.407-2.084-1.494-2.084
	c-1.169,0-1.511,0.584-1.511,2.084c0,1.51,0.259,2.18,1.511,2.18C167.982,81.463,168.219,80.732,168.219,79.283"/>
<path fill="#FFFFFF" d="M170.916,82.386v-6.089h1.145v0.391c0,0,0.932-0.527,1.753-0.527c1.695,0,2.104,0.919,2.104,3.038v3.188
	h-1.157v-3.213c0-1.376-0.157-1.974-1.175-1.974c-0.778,0-1.524,0.366-1.524,0.366v4.818h-1.145V82.386z"/>
<path fill="#FFFFFF" d="M195.125,82.223c0,0-1.393,0.29-2.357,0.29c-2.54,0-3.113-1.515-3.113-4.35c0-2.964,0.667-4.379,3.113-4.379
	c1.091,0,2.357,0.309,2.357,0.309l-0.043,1.061c0,0-1.371-0.206-2.167-0.206c-1.687,0-2.033,0.92-2.033,3.216
	c0,2.225,0.306,3.188,2.063,3.188c0.719,0,2.137-0.204,2.137-0.204L195.125,82.223z"/>
<path fill="#FFFFFF" d="M196.581,76.297h1.151v0.721c0,0,0.858-0.642,1.979-0.869v1.215c-1.121,0.23-1.979,0.751-1.979,0.751v4.265
	h-1.151V76.297z"/>
<path fill="#FFFFFF" d="M205.396,81.345l0.019,0.912c0,0-1.39,0.259-2.42,0.259c-1.833-0.017-2.493-1.028-2.493-3.141
	c0-2.267,0.977-3.216,2.599-3.216c1.682,0,2.523,0.871,2.523,2.813l-0.077,0.845h-3.876c0,1.096,0.395,1.638,1.479,1.638
	C204.089,81.456,205.396,81.345,205.396,81.345 M204.476,78.915c0-1.266-0.398-1.726-1.375-1.726c-0.944,0-1.428,0.496-1.446,1.726
	H204.476z"/>
<path fill="#FFFFFF" d="M211.513,81.062c0.02,0.354,0.224,0.504,0.605,0.55l-0.049,0.887c-0.699,0-1.131-0.097-1.544-0.45
	c0,0-1.027,0.467-2.062,0.467c-1.159,0-1.774-0.674-1.774-1.914c0-1.248,0.673-1.717,1.952-1.818l1.704-0.158v-0.456
	c0-0.679-0.315-0.981-0.96-0.981c-0.838,0-2.288,0.147-2.288,0.147l-0.056-0.878c0,0,1.479-0.297,2.467-0.297
	c1.327,0,2.004,0.638,2.004,2.009V81.062z M208.781,79.611c-0.638,0.062-0.917,0.354-0.917,0.964c0,0.608,0.259,0.98,0.817,0.98
	c0.704,0,1.665-0.306,1.665-0.306v-1.796L208.781,79.611z"/>
<path fill="#FFFFFF" d="M214.762,77.335v2.657c0,1.096,0.059,1.436,0.752,1.436c0.343,0,1.034-0.057,1.034-0.057l0.066,0.996
	c0,0-0.812,0.146-1.243,0.146c-1.332,0-1.758-0.498-1.758-2.252v-2.925H212.8v-1.042h0.813v-1.821h1.148v1.821h1.786v1.042
	L214.762,77.335L214.762,77.335z"/>
<path fill="#FFFFFF" d="M217.812,73.833h1.164v1.282h-1.164V73.833z M217.812,76.297h1.164v6.089h-1.164V76.297z"/>
<polygon fill="#FFFFFF" points="221.324,76.297 222.64,81.416 223.042,81.416 224.37,76.297 225.55,76.297 223.907,82.379 
	221.764,82.379 220.129,76.297 "/>
<path fill="#FFFFFF" d="M226.697,73.833h1.151v1.282h-1.151V73.833z M226.697,76.297h1.151v6.089h-1.151V76.297z"/>
<path fill="#FFFFFF" d="M231.023,77.335v2.657c0,1.096,0.053,1.436,0.751,1.436c0.345,0,1.033-0.057,1.033-0.057l0.069,0.996
	c0,0-0.82,0.146-1.25,0.146c-1.324,0-1.75-0.498-1.75-2.252v-2.925h-0.821v-1.042h0.821v-1.821h1.146v1.821h1.784v1.042
	L231.023,77.335L231.023,77.335z"/>
<polygon fill="#FFFFFF" points="234.526,76.297 235.909,81.271 236.27,81.271 237.66,76.297 238.804,76.297 236.405,85.036 
	235.278,85.036 235.99,82.379 235.036,82.379 233.385,76.297 "/>
<path fill="#FFFFFF" d="M247.944,82.223c0,0-1.393,0.29-2.358,0.29c-2.54,0-3.122-1.515-3.122-4.35c0-2.964,0.677-4.379,3.122-4.379
	c1.092,0,2.358,0.309,2.358,0.309l-0.044,1.061c0,0-1.37-0.206-2.168-0.206c-1.688,0-2.035,0.92-2.035,3.216
	c0,2.225,0.311,3.188,2.071,3.188c0.719,0,2.132-0.204,2.132-0.204L247.944,82.223z"/>
<path fill="#FFFFFF" d="M253.854,81.345l0.021,0.912c0,0-1.391,0.259-2.426,0.259c-1.826-0.017-2.481-1.028-2.481-3.141
	c0-2.267,0.969-3.216,2.583-3.216c1.687,0,2.531,0.871,2.531,2.813L254,79.817h-3.863c0,1.096,0.39,1.638,1.474,1.638
	C252.543,81.456,253.854,81.345,253.854,81.345 M252.937,78.915c0-1.266-0.403-1.726-1.385-1.726c-0.939,0-1.415,0.496-1.433,1.726
	H252.937z"/>
<path fill="#FFFFFF" d="M255.58,82.386v-6.089h1.146v0.391c0,0,0.924-0.527,1.753-0.527c1.698,0,2.103,0.919,2.103,3.038v3.188
	h-1.161v-3.213c0-1.376-0.156-1.974-1.168-1.974c-0.785,0-1.526,0.366-1.526,0.366v4.818h-1.146V82.386z"/>
<path fill="#FFFFFF" d="M263.729,77.335v2.657c0,1.096,0.061,1.436,0.759,1.436c0.34,0,1.034-0.057,1.034-0.057l0.062,0.996
	c0,0-0.815,0.146-1.249,0.146c-1.329,0-1.759-0.498-1.759-2.252v-2.925h-0.808v-1.042h0.808v-1.821h1.152v1.821h1.793v1.042
	L263.729,77.335L263.729,77.335z"/>
<path fill="#FFFFFF" d="M266.854,76.297h1.141v0.721c0,0,0.864-0.642,1.99-0.869v1.215c-1.126,0.23-1.99,0.751-1.99,0.751v4.265
	h-1.141V76.297z"/>
<path fill="#FFFFFF" d="M275.656,81.345l0.022,0.912c0,0-1.385,0.259-2.424,0.259c-1.827-0.017-2.481-1.028-2.481-3.141
	c0-2.267,0.972-3.216,2.595-3.216c1.677,0,2.523,0.871,2.523,2.813l-0.076,0.845h-3.876c0,1.096,0.387,1.638,1.475,1.638
	C274.352,81.456,275.656,81.345,275.656,81.345 M274.741,78.915c0-1.266-0.396-1.726-1.373-1.726c-0.952,0-1.429,0.496-1.439,1.726
	H274.741z"/>
<path fill="#FFFFFF" d="M185.384,82.386c-0.23-0.236-0.455-0.472-0.774-0.813c-0.715,0.664-1.516,0.947-2.426,0.947
	c-1.617,0-2.551-1.084-2.551-2.333c0-1.133,0.676-1.907,1.626-2.425v-0.036c-0.434-0.543-0.692-1.142-0.692-1.735
	c0-1.013,0.73-2.048,2.107-2.048c1.039,0,1.841,0.691,1.841,1.762c0,0.881-0.511,1.567-1.826,2.222v0.038
	c0.702,0.81,1.488,1.72,2.017,2.312c0.384-0.576,0.642-1.383,0.806-2.424h0.983c-0.223,1.304-0.578,2.336-1.196,3.064
	c0.444,0.468,0.878,0.937,1.372,1.472h-1.286V82.386z M184.082,80.958c-0.495-0.544-1.417-1.556-2.347-2.616
	c-0.438,0.282-1.069,0.813-1.069,1.686c0,0.952,0.703,1.679,1.701,1.679C183.083,81.706,183.688,81.384,184.082,80.958
	 M181.553,75.889c0,0.593,0.27,1.048,0.631,1.493c0.839-0.481,1.378-0.925,1.378-1.629c0-0.505-0.283-1.07-0.962-1.07
	C181.91,74.683,181.553,75.248,181.553,75.889"/>
</svg>
